HIERARCHY
ROOT Hips
{
	OFFSET 0.000000 0.000000 0.000000 
	CHANNELS 6 Xposition Yposition Zposition Zrotation Yrotation Xrotation
	JOINT LeftUpLeg
	{
		OFFSET 1.363060 -1.794630 0.839290 
		CHANNELS 3 Zrotation Yrotation Xrotation
		JOINT LeftLeg
		{
			OFFSET 2.448110 -6.726130 0.000000 
			CHANNELS 3 Zrotation Yrotation Xrotation
			JOINT LeftFoot
			{
				OFFSET 2.562200 -7.039590 0.000000 
				CHANNELS 3 Zrotation Yrotation Xrotation
				JOINT LeftToeBase
				{
					OFFSET 0.157640 -0.433110 2.322550 
					CHANNELS 3 Zrotation Yrotation Xrotation
					End Site
					{
						OFFSET 0.000000 0.000000 0.000000 
					}
				}
			}
		}
	}
	JOINT RightUpLeg
	{
		OFFSET -1.305520 -1.794630 0.839290 
		CHANNELS 3 Zrotation Yrotation Xrotation
		JOINT RightLeg
		{
			OFFSET -2.542530 -6.985550 0.000000 
			CHANNELS 3 Zrotation Yrotation Xrotation
			JOINT RightFoot
			{
				OFFSET -2.568260 -7.056230 0.000000 
				CHANNELS 3 Zrotation Yrotation Xrotation
				JOINT RightToeBase
				{
					OFFSET -0.164730 -0.452590 2.363150 
					CHANNELS 3 Zrotation Yrotation Xrotation
					End Site
					{
						OFFSET 0.000000 0.000000 0.000000 
					}
				}
			}
		}
	}
	JOINT Spine
	{
		OFFSET 0.028270 2.035590 -0.193380 
		CHANNELS 3 Zrotation Yrotation Xrotation
		JOINT Spine1
		{
			OFFSET 0.056720 2.048850 -0.042750 
			CHANNELS 3 Zrotation Yrotation Xrotation
			JOINT Neck1
			{
				OFFSET -0.054170 1.746240 0.172020 
				CHANNELS 3 Zrotation Yrotation Xrotation
				JOINT Head
				{
					OFFSET 0.104070 1.761360 -0.123970 
					CHANNELS 3 Zrotation Yrotation Xrotation
					End Site
					{
						OFFSET 0.000000 0.000000 0.000000 
					}
				}
			}
			JOINT LeftArm
			{
				OFFSET 3.362410 1.200890 -0.311210 
				CHANNELS 3 Zrotation Yrotation Xrotation
				JOINT LeftForeArm
				{
					OFFSET 4.983000 -0.000000 -0.000000 
					CHANNELS 3 Zrotation Yrotation Xrotation
					JOINT LeftHand
					{
						OFFSET 3.483560 -0.000000 -0.000000 
						CHANNELS 3 Zrotation Yrotation Xrotation
						JOINT LeftHandIndex1
						{
							OFFSET 0.715260 -0.000000 -0.000000 
							CHANNELS 3 Zrotation Yrotation Xrotation
							End Site
							{
								OFFSET 0.000000 0.000000 0.000000 
							}
						}
					}
				}
			}
			JOINT RightArm
			{
				OFFSET -3.136600 1.374050 -0.404650 
				CHANNELS 3 Zrotation Yrotation Xrotation
				JOINT RightForeArm
				{
					OFFSET -5.241900 -0.000000 -0.000000 
					CHANNELS 3 Zrotation Yrotation Xrotation
					JOINT RightHand
					{
						OFFSET -3.444170 -0.000000 -0.000000 
						CHANNELS 3 Zrotation Yrotation Xrotation
						JOINT RightHandIndex1
						{
							OFFSET -0.622530 -0.000000 -0.000000 
							CHANNELS 3 Zrotation Yrotation Xrotation
							End Site
							{
								OFFSET 0.000000 0.000000 0.000000 
							}
						}
					}
				}
			}
		}
	}
}
MOTION
Frames: 6
Frame Time: 0.041667
8.904943 17.864756 48.936563 -176.933177 2.637236 -178.904877 -18.919535 -22.540355 -1.984646 -2.477315 8.570501 24.433216 -5.466171 17.158201 -11.046162 2.552700 -9.933200 -28.760600 23.669345 21.150906 0.843454 2.208702 -7.726531 23.977507 7.619065 -26.199136 -15.803602 -0.342700 3.761800 -10.407400 3.368993 3.046078 -0.341096 -4.887062 1.203950 -11.495077 16.961227 -6.413004 16.886357 3.752600 -2.368700 6.252700 -90.298319 11.571478 30.356694 26.267345 -26.249338 -7.634348 1.420638 0.951294 9.897416 -7.125000 0.000000 0.000000 88.002241 -10.464818 32.892388 -22.717582 26.043303 -6.824121 0.992421 0.527127 11.021114 7.125000 0.000000 0.000000 
8.882807 17.864873 48.922905 -177.228563 2.916589 -178.714484 -19.236270 -22.364589 -2.044712 -2.527634 8.502878 24.233398 -5.394892 17.015873 -11.101497 2.596300 -10.011000 -29.012400 23.094997 21.029583 0.289782 2.109816 -7.892299 24.380985 7.543681 -25.871429 -15.488518 -0.412500 4.122600 -11.422000 3.188010 3.126038 -0.487616 -4.771346 1.267316 -11.407727 17.083725 -6.428400 16.906300 3.804900 -2.375000 6.256900 -90.333275 11.316240 29.856895 26.021663 -25.981690 -7.499785 1.406165 0.989638 9.852901 -7.125000 0.000000 0.000000 87.934124 -10.661665 33.317988 -22.715396 26.024283 -6.812984 1.022997 0.531843 9.178060 7.125000 0.000000 0.000000 
8.853252 17.858986 48.914898 -177.512644 3.001293 -178.618528 -19.545259 -22.067950 -2.246923 -2.519082 8.527148 24.306680 -5.069248 16.277096 -11.153017 2.587500 -9.995200 -28.961200 22.589708 20.899118 -0.042254 2.048240 -7.973483 24.575536 7.570311 -25.816346 -15.154195 -0.491100 4.493100 -12.468200 2.963150 3.145658 -0.658293 -4.699611 1.295346 -11.456763 17.122931 -6.461893 16.947163 3.813800 -2.389200 6.262100 -90.230743 11.389789 29.912525 26.033589 -26.000551 -7.518000 1.385797 1.015099 9.859368 -7.125000 0.000000 0.000000 87.939627 -10.781298 33.031125 -22.724257 26.047567 -6.837028 1.014918 0.535790 8.945009 7.125000 0.000000 0.000000 
8.820165 17.852981 48.901357 -177.297671 3.118870 -178.622845 -19.413769 -21.992127 -2.185613 -2.544934 8.474652 24.194438 -4.966557 16.027481 -11.253611 2.562200 -9.950200 -28.815500 22.663980 20.711417 -0.346216 1.957369 -8.139146 25.016944 7.445792 -25.489696 -15.042086 -0.523400 4.636400 -12.874300 3.082412 3.200790 -0.668030 -4.856731 1.289647 -11.447207 17.152228 -6.521040 17.037509 3.826600 -2.411600 6.309300 -90.179079 11.405100 29.876736 25.951170 -25.898078 -7.459705 1.365851 1.027010 10.331351 -7.125000 0.000000 0.000000 87.876285 -10.796645 32.689374 -22.701565 26.030420 -6.842322 0.996881 0.542525 9.183471 7.125000 0.000000 0.000000 
8.784370 17.853334 48.883342 -177.055799 3.403264 -178.741226 -19.395660 -22.133206 -1.831188 -2.572992 8.400786 24.048733 -4.911722 15.890823 -11.302187 2.170900 -9.213300 -26.464800 22.705414 20.285617 -0.735503 1.836050 -8.336435 25.569879 7.164608 -24.681333 -14.683366 -0.470300 4.398400 -12.200400 3.310281 3.289593 -0.516597 -5.029911 1.297407 -11.410844 17.256115 -6.547540 17.082323 3.888800 -2.423700 6.346100 -90.325709 11.536404 29.467576 26.119509 -26.078932 -7.532308 1.361208 1.008660 10.422700 -7.125000 0.000000 0.000000 87.681936 -10.852031 32.599193 -22.723539 26.053561 -6.864608 0.991974 0.540718 9.106083 7.125000 0.000000 0.000000 
8.761174 17.862754 48.892644 -177.568460 3.512008 -178.474657 -19.822921 -21.786093 -2.097295 -2.620932 8.332764 23.836835 -4.699878 15.410001 -11.261533 2.050300 -8.970200 -25.702100 21.757732 19.611613 -1.860600 1.671842 -8.593456 26.189499 6.963717 -23.901032 -13.959537 -0.445500 4.282200 -11.872000 3.166990 3.214989 -0.841142 -4.751332 1.304585 -11.580102 17.302174 -6.470623 17.023581 3.934700 -2.396000 6.311100 -90.458878 11.283775 28.836201 25.944583 -25.900131 -7.432015 1.405266 0.988123 9.976744 -7.125000 0.000000 0.000000 87.434819 -10.983151 32.633311 -22.796475 26.111591 -6.873367 1.026873 0.515965 8.747877 7.125000 0.000000 0.000000 
